<svg xmlns="http://www.w3.org/2000/svg" viewBox="0 0 512 512" width="512" height="512">
  <defs>
    <linearGradient id="grad1" x1="0%" y1="0%" x2="100%" y2="100%">
      <stop offset="0%" style="stop-color:#4f46e5;stop-opacity:1" />
      <stop offset="100%" style="stop-color:#ec4899;stop-opacity:1" />
    </linearGradient>
  </defs>
  <rect width="512" height="512" rx="100" fill="#f8fafc" />
  <path d="M256 120C180.9 120 120 180.9 120 256s60.9 136 136 136 136-60.9 136-136-60.9-136-136-136zm0 240c-57.3 0-104-46.7-104-104s46.7-104 104-104 104 46.7 104 104-46.7 104-104 104z" fill="url(#grad1)" opacity="0.2"/>
  <path d="M340 256c0-46.4-37.6-84-84-84-46.4 0-84 37.6-84 84 0 46.4 37.6 84 84 84 46.4 0 84-37.6 84-84z" fill="none" stroke="url(#grad1)" stroke-width="32" stroke-linecap="round"/>
  <path d="M256 200v112M200 256h112" stroke="url(#grad1)" stroke-width="32" stroke-linecap="round"/>
</svg>
